<svg xmlns="http://www.w3.org/2000/svg" viewBox="0 0 311 257"><defs><style>.cls-1{fill:#939598;}.cls-1,.cls-2{stroke:#231f20;stroke-miterlimit:10;stroke-width:5px;}.cls-2{fill:#231f20;}</style></defs><g id="Layer_2" data-name="Layer 2"><g id="Layer_1-2" data-name="Layer 1"><g id="Bear"><path class="cls-1" d="M286.82,89.88c10.65,15.69,16.68,33.6,16.68,52.62,0,61.86-63.8,112-142.5,112S18.5,204.36,18.5,142.5A92.18,92.18,0,0,1,31.83,95.13,43.5,43.5,0,1,1,88.75,46,172.09,172.09,0,0,1,161,30.5a176.07,176.07,0,0,1,53.84,8.28,47.5,47.5,0,1,1,72,51.1Z"/><ellipse class="cls-2" cx="167.5" cy="175.5" rx="41" ry="22"/><circle class="cls-2" cx="109.5" cy="119.5" r="13"/><circle class="cls-2" cx="213.5" cy="119.5" r="13"/></g></g></g></svg>