<svg xmlns="http://www.w3.org/2000/svg" viewBox="0 0 188.13 148.82"><defs><style>.cls-1,.cls-2{fill:#231f20;stroke-miterlimit:10;stroke-width:5px;}.cls-1{stroke:#231f20;}.cls-2{stroke:#fff;}</style></defs><g id="Layer_2" data-name="Layer 2"><g id="Layer_1-2" data-name="Layer 1"><g id="Black_Elephant" data-name="Black Elephant"><polyline class="cls-1" points="53.52 96.35 39.82 137.17 147.21 137.17 135.16 96.35"/><path class="cls-1" d="M185.56,69.14c1,18.92-11,43.19-23.83,43.19-7.58,0-14.33-6.41-18.69-16.4-10.76,10-26.74,16.4-44.59,16.4-20.5,0-38.54-8.39-49-21.1C45,103.87,37,112.33,27.77,112.33c-13.58,0-26.28-24.2-25.21-43.19C4.51,34.64,52.91.54,99.06,2.59,140.74,4.43,183.75,35.89,185.56,69.14Z"/><path class="cls-2" d="M49.43,91.23A85.17,85.17,0,0,0,143,95.93"/><path class="cls-2" d="M82,83.34c-3.73,19.27-.6,33.5,1.64,40.82,2.49,8.12,5.29,17.24,13.15,20.7,7.44,3.27,17.74.75,19.73-4.73s-5.48-10.15-9.32-21.3-1.92-22.64.83-31.35"/><ellipse class="cls-2" cx="72.1" cy="57.85" rx="8.18" ry="8.83"/><ellipse class="cls-2" cx="122.83" cy="57.85" rx="8.18" ry="8.83"/></g></g></g></svg>