<svg xmlns="http://www.w3.org/2000/svg" viewBox="0 0 227.13 282.07"><defs><style>.cls-1,.cls-2{fill:#231f20;}.cls-1,.cls-3,.cls-5{stroke:#231f20;}.cls-1,.cls-2,.cls-3,.cls-4,.cls-5{stroke-miterlimit:10;stroke-width:5px;}.cls-2{stroke:#f1f2f2;}.cls-3,.cls-4{fill:#fff;}.cls-4{stroke:#fff;}.cls-5{fill:#fdef44;}</style></defs><g id="Layer_2" data-name="Layer 2"><g id="Layer_1-2" data-name="Layer 1"><g id="Black_Banana_King" data-name="Black Banana King"><path class="cls-1" d="M5,269.57a438,438,0,0,0,91,10,437.92,437.92,0,0,0,95-10,446.4,446.4,0,0,0,9-133,439.3,439.3,0,0,0-9-59,180,180,0,0,0-136,0l-9,30,114,7a584.66,584.66,0,0,0,7,131c-21.45-1.15-43.81-1.86-67-2-29.7-.19-58.08.56-85,2Z"/><path class="cls-2" d="M46,107.57a216,216,0,0,1,114,7c-.52,20.78-.31,43.18,1,67,1.26,22.79,3.37,44.17,6,64-21.86-3.48-130.61-3.4-152,0a252.56,252.56,0,0,0,24-61A252.75,252.75,0,0,0,46,107.57Z"/><path class="cls-3" d="M59.53,75.78,40,28.57l51,18,39-24,37,26.6,45-26.6L182.34,74.34A179.85,179.85,0,0,0,59.53,75.78Z"/><polyline class="cls-1" points="45.74 142.4 14.95 187.57 45.74 195.57"/><line class="cls-4" x1="27.16" y1="220.24" x2="63.95" y2="220.24"/><circle class="cls-2" cx="96.95" cy="140.57" r="11"/><g id="Banana"><path class="cls-5" d="M11.71,14C9.1,20.55,40.27,42.45,73.63,53c40.7,12.91,74.75,5.82,92,2,20.13-4.45,59.44-16.52,59-30-.11-3.44-2.8-6.22-5.27-8.14A369.41,369.41,0,0,1,120.6,27.15C57,25.06,14.63,6.75,11.71,14Z"/><path class="cls-5" d="M2,1.54,11.71,14"/></g></g></g></g></svg>