<svg xmlns="http://www.w3.org/2000/svg" viewBox="0 0 192.28 307.98"><defs><style>.cls-1,.cls-2{fill:#231f20;}.cls-1,.cls-3{stroke:#231f20;}.cls-1,.cls-2,.cls-3{stroke-miterlimit:10;stroke-width:5px;}.cls-2{stroke:#fff;}.cls-3{fill:#fff;}</style></defs><g id="Layer_2" data-name="Layer 2"><g id="Layer_1-2" data-name="Layer 1"><g id="Black_Queen" data-name="Black Queen"><path class="cls-1" d="M35,242.27l-31,63c24,0,37.82-7,46-13.5,8.39-6.67,12.92-14.39,21-14,8.27.39,11.65,8.9,20,16,7.8,6.63,21.06,13,45,11.5q-14.51-31.5-29-63Z"/><path class="cls-1" d="M35,242.27,23,85.77c2.83-11,7.54-24.16,14.84-24.9C50,59.65,63.9,93.35,65,92.77s-19.51-29.47-11-42c6.25-9.22,27.23-8.06,41-1,16.93,8.68,24.33,27,30.33,42.4a140.25,140.25,0,0,1,6.67,22.6,177.57,177.57,0,0,1,3.28,28c1.22,43.21-24.1,91.63-28.28,99.49Z"/><path class="cls-1" d="M135.3,142.78l36.72,74a168.64,168.64,0,0,1-19-19c-4.66-5.49-7.3-9.35-12-10-6-.83-11.36,4-14.11,7Q131.11,168.75,135.3,142.78Z"/><circle class="cls-2" cx="95.02" cy="82.77" r="11"/><path class="cls-2" d="M52,126.77a78.21,78.21,0,0,0,27.16,64l26.84-60"/><polygon class="cls-3" points="102.41 50.21 128.57 8.66 128.57 41.06 159.96 33.66 151.13 52.6 182.51 57.66 123.22 79.66 102.41 50.21"/></g></g></g></svg>