<svg xmlns="http://www.w3.org/2000/svg" viewBox="0 0 241 299.18"><defs><style>.cls-1,.cls-2{fill:#231f20;stroke-width:5px;}.cls-1{stroke:#231f20;}.cls-1,.cls-2,.cls-3{stroke-miterlimit:10;}.cls-2,.cls-3{stroke:#fff;}.cls-3{fill:none;stroke-width:10px;}</style></defs><g id="Layer_2" data-name="Layer 2"><g id="Layer_1-2" data-name="Layer 1"><g id="Black_Monkey" data-name="Black Monkey"><polyline class="cls-1" points="60.46 248.68 60.46 296.68 229.5 296.68 229.5 248.68 187.5 248.68"/><polyline class="cls-1" points="60.46 142.68 60.46 257.68 187.5 257.68 187.5 145.87"/><path class="cls-1" d="M44.16,45.81c24-31.6,61.77-48,98.34-42.13,36.35,5.86,57.46,31.5,62.79,38.39"/><path class="cls-1" d="M222.7,69.54a57.07,57.07,0,0,1,2.8,17.64c0,22.6-13.37,42.85-34.48,56.5a103.37,103.37,0,0,1-16.56,8.68,124.62,124.62,0,0,1-48,9.32c-20.4,0-39.36-4.64-55.11-12.6a101.4,101.4,0,0,1-9.41-5.4C40.87,130,27.5,109.78,27.5,87.18a56.35,56.35,0,0,1,.86-9.84,22.26,22.26,0,0,1-3.86.34A22,22,0,1,1,44.16,45.81c19.37-19,35.65-23.56,47.15-24.06,12.81-.55,16.35,4.05,38.19,4.93,20.36.82,24.12-2.9,38-1,9,1.24,22.31,4.85,37.79,16.39A18,18,0,1,1,222.7,69.54Z"/><circle class="cls-2" cx="90.5" cy="70.68" r="12"/><circle class="cls-2" cx="163.5" cy="70.68" r="12"/><path class="cls-3" d="M88.5,113.68a63.89,63.89,0,0,0,36,16c24,2.4,41.13-10,45-13"/><path class="cls-2" d="M120.42,174.11l1,39.19-82.57-.12q-1.2-34.76-2.39-69.5H62a101.4,101.4,0,0,0,9.41,5.4q-.24,12.51-.5,25Z"/><path class="cls-2" d="M209.29,143.68q-1.2,34.75-2.39,69.5H126.11l-.74-39.07H174.9q-.21-10.87-.44-21.75A103.37,103.37,0,0,0,191,143.68Z"/><line class="cls-2" x1="123.16" y1="213.18" x2="123.98" y2="257.68"/></g></g></g></svg>