<svg width="1200" height="1000" viewBox="0 0 1200 1000" fill="none" xmlns="http://www.w3.org/2000/svg">
<g clip-path="url(#clip0_1_4)">
<g clip-path="url(#clip1_1_4)">
<rect width="100" height="100" transform="translate(0 500)" fill="#455A64"/>
<rect width="100" height="100" transform="translate(1100 400)" fill="#455A64"/>
<rect x="1101" y="501" width="98" height="98" fill="#BFBFBF"/>
<rect x="1101" y="501" width="98" height="98" stroke="#455A64" stroke-width="2"/>
<rect x="1" y="401" width="98" height="98" fill="#BFBFBF"/>
<rect x="1" y="401" width="98" height="98" stroke="#455A64" stroke-width="2"/>
</g>
<rect x="105" y="5" width="990" height="990" fill="#BFBFBF"/>
<g clip-path="url(#clip2_1_4)">
<rect x="200" y="100" width="800" height="800" fill="#BFBFBF"/>
<rect width="100" height="100" transform="translate(300 100)" fill="#455A64"/>
<rect width="100" height="100" transform="translate(200 200)" fill="#455A64"/>
<rect width="100" height="100" transform="translate(300 300)" fill="#455A64"/>
<rect width="100" height="100" transform="translate(400 200)" fill="#455A64"/>
<rect width="100" height="100" transform="translate(500 100)" fill="#455A64"/>
<rect width="100" height="100" transform="translate(500 300)" fill="#455A64"/>
<rect width="100" height="100" transform="translate(600 200)" fill="#455A64"/>
<rect width="100" height="100" transform="translate(700 100)" fill="#455A64"/>
<rect width="100" height="100" transform="translate(700 300)" fill="#455A64"/>
<rect width="100" height="100" transform="translate(900 100)" fill="#455A64"/>
<rect width="100" height="100" transform="translate(900 300)" fill="#455A64"/>
<rect width="100" height="100" transform="translate(800 200)" fill="#455A64"/>
<rect width="100" height="100" transform="translate(300 500)" fill="#455A64"/>
<rect width="100" height="100" transform="translate(200 600)" fill="#455A64"/>
<rect width="100" height="100" transform="translate(300 700)" fill="#455A64"/>
<rect width="100" height="100" transform="translate(400 600)" fill="#455A64"/>
<rect width="100" height="100" transform="translate(500 500)" fill="#455A64"/>
<rect width="100" height="100" transform="translate(500 700)" fill="#455A64"/>
<rect width="100" height="100" transform="translate(600 600)" fill="#455A64"/>
<rect width="100" height="100" transform="translate(700 500)" fill="#455A64"/>
<rect width="100" height="100" transform="translate(700 700)" fill="#455A64"/>
<rect width="100" height="100" transform="translate(900 500)" fill="#455A64"/>
<rect width="100" height="100" transform="translate(900 700)" fill="#455A64"/>
<rect width="100" height="100" transform="translate(800 600)" fill="#455A64"/>
<rect width="100" height="100" transform="translate(200 400)" fill="#455A64"/>
<rect width="100" height="100" transform="translate(400 400)" fill="#455A64"/>
<rect width="100" height="100" transform="translate(600 400)" fill="#455A64"/>
<rect width="100" height="100" transform="translate(800 400)" fill="#455A64"/>
<rect width="100" height="100" transform="translate(200 800)" fill="#455A64"/>
<rect width="100" height="100" transform="translate(400 800)" fill="#455A64"/>
<rect width="100" height="100" transform="translate(600 800)" fill="#455A64"/>
<rect width="100" height="100" transform="translate(800 800)" fill="#455A64"/>
</g>
<rect x="205" y="105" width="790" height="790" stroke="#455A64" stroke-width="10"/>
<path d="M234.056 963.939L228.148 963.975L244.955 917.327L250.773 917.291L268.147 963.732L262.238 963.768L248.091 924.671L247.727 924.674L234.056 963.939ZM236.128 945.744L259.945 945.6L259.976 950.6L236.158 950.744L236.128 945.744Z" fill="#455A64"/>
<path d="M330.597 963.632L330.314 917.088L346.587 916.989C349.829 916.969 352.507 917.513 354.619 918.622C356.732 919.715 358.309 921.198 359.351 923.07C360.393 924.928 360.92 926.993 360.934 929.265C360.946 931.265 360.6 932.919 359.896 934.226C359.207 935.534 358.289 936.569 357.142 937.334C356.011 938.099 354.779 938.667 353.448 939.038L353.451 939.493C354.876 939.575 356.31 940.066 357.755 940.967C359.2 941.867 360.413 943.163 361.393 944.854C362.373 946.545 362.87 948.618 362.885 951.072C362.899 953.405 362.382 955.507 361.332 957.377C360.283 959.247 358.618 960.735 356.337 961.839C354.055 962.944 351.082 963.508 347.415 963.53L330.597 963.632ZM336.203 958.598L347.385 958.53C351.066 958.508 353.676 957.78 355.212 956.346C356.764 954.897 357.534 953.15 357.521 951.105C357.512 949.529 357.102 948.077 356.29 946.749C355.479 945.405 354.329 944.336 352.839 943.542C351.349 942.733 349.589 942.335 347.559 942.347L336.105 942.417L336.203 958.598ZM336.075 937.508L346.529 937.444C348.226 937.434 349.754 937.091 351.114 936.416C352.489 935.741 353.574 934.795 354.369 933.578C355.18 932.361 355.581 930.934 355.571 929.298C355.558 927.253 354.836 925.522 353.403 924.107C351.97 922.676 349.708 921.97 346.617 921.989L335.981 922.053L336.075 937.508Z" fill="#455A64"/>
<path d="M468.386 930.794L462.749 930.828C462.406 929.209 461.814 927.788 460.973 926.566C460.148 925.344 459.142 924.32 457.955 923.494C456.783 922.652 455.484 922.024 454.057 921.608C452.63 921.193 451.144 920.99 449.598 920.999C446.78 921.016 444.232 921.744 441.953 923.182C439.689 924.62 437.891 926.729 436.559 929.51C435.243 932.291 434.597 935.696 434.621 939.727C434.646 943.757 435.333 947.154 436.683 949.919C438.048 952.683 439.872 954.771 442.153 956.181C444.45 957.592 447.007 958.288 449.825 958.271C451.371 958.262 452.854 958.04 454.276 957.608C455.697 957.175 456.989 956.538 458.151 955.698C459.327 954.842 460.321 953.798 461.132 952.566C461.957 951.318 462.532 949.891 462.856 948.282L468.492 948.248C468.082 950.63 467.322 952.763 466.212 954.649C465.103 956.534 463.719 958.141 462.06 959.469C460.401 960.782 458.536 961.786 456.464 962.481C454.408 963.175 452.206 963.529 449.857 963.544C445.888 963.568 442.351 962.62 439.249 960.699C436.146 958.778 433.698 956.036 431.903 952.471C430.109 948.906 429.197 944.669 429.167 939.76C429.137 934.851 429.997 930.603 431.748 927.017C433.499 923.43 435.914 920.658 438.993 918.7C442.072 916.742 445.597 915.75 449.566 915.726C451.915 915.712 454.121 916.04 456.186 916.709C458.266 917.378 460.143 918.367 461.818 919.675C463.493 920.967 464.896 922.55 466.029 924.422C467.161 926.279 467.947 928.403 468.386 930.794Z" fill="#455A64"/>
<path d="M546.019 962.323L531.656 962.41L531.373 915.865L546.372 915.774C550.887 915.747 554.757 916.655 557.98 918.499C561.203 920.328 563.682 922.972 565.415 926.431C567.148 929.875 568.029 934.006 568.058 938.824C568.088 943.673 567.25 947.852 565.544 951.363C563.838 954.858 561.339 957.555 558.047 959.454C554.756 961.338 550.746 962.294 546.019 962.323ZM537.261 957.376L545.625 957.325C549.473 957.301 552.658 956.54 555.179 955.039C557.701 953.539 559.574 951.414 560.8 948.664C562.026 945.914 562.627 942.645 562.604 938.858C562.581 935.1 561.948 931.869 560.704 929.164C559.46 926.445 557.614 924.365 555.166 922.925C552.718 921.47 549.675 920.754 546.039 920.776L537.039 920.831L537.261 957.376Z" fill="#455A64"/>
<path d="M632.185 961.799L631.902 915.254L659.992 915.083L660.023 920.083L637.569 920.22L637.664 935.947L658.664 935.819L658.694 940.819L637.695 940.947L637.791 956.765L660.608 956.626L660.639 961.626L632.185 961.799Z" fill="#455A64"/>
<path d="M732.714 961.187L732.431 914.643L760.34 914.473L760.37 919.473L738.098 919.609L738.193 935.336L758.375 935.213L758.405 940.213L738.224 940.335L738.35 961.153L732.714 961.187Z" fill="#455A64"/>
<path d="M864.866 928.383C864.357 926.856 863.69 925.489 862.864 924.282C862.054 923.06 861.085 922.02 859.959 921.163C858.847 920.306 857.586 919.655 856.174 919.209C854.762 918.763 853.215 918.545 851.534 918.555C848.776 918.572 846.273 919.299 844.024 920.737C841.775 922.175 839.993 924.285 838.676 927.065C837.36 929.846 836.714 933.252 836.738 937.282C836.763 941.312 837.458 944.709 838.823 947.474C840.188 950.238 842.027 952.326 844.338 953.736C846.65 955.146 849.245 955.843 852.124 955.825C854.791 955.809 857.136 955.226 859.159 954.078C861.197 952.914 862.778 951.283 863.902 949.185C865.041 947.072 865.601 944.591 865.584 941.743L867.313 942.096L853.314 942.181L853.283 937.181L871.01 937.073L871.041 942.073C871.064 945.907 870.266 949.245 868.647 952.088C867.043 954.931 864.814 957.142 861.96 958.72C859.121 960.283 855.853 961.075 852.156 961.098C848.035 961.123 844.408 960.175 841.275 958.255C838.157 956.334 835.716 953.591 833.952 950.026C832.203 946.461 831.314 942.224 831.284 937.315C831.261 933.633 831.734 930.32 832.701 927.374C833.683 924.414 835.076 921.89 836.882 919.803C838.687 917.717 840.829 916.113 843.307 914.992C845.785 913.87 848.517 913.301 851.502 913.283C853.956 913.268 856.246 913.625 858.372 914.354C860.513 915.069 862.42 916.095 864.095 917.433C865.785 918.756 867.196 920.346 868.329 922.203C869.461 924.045 870.246 926.093 870.684 928.348L864.866 928.383Z" fill="#455A64"/>
<path d="M933.773 959.965L933.49 913.42L939.126 913.386L939.252 934.113L964.07 933.962L963.944 913.235L969.58 913.201L969.863 959.746L964.227 959.78L964.1 938.962L939.282 939.113L939.409 959.931L933.773 959.965Z" fill="#455A64"/>
<path d="M264.08 38H269.989L252.898 84.5455H247.08L229.989 38H235.898L249.807 77.1818H250.17L264.08 38ZM261.898 56.1818H238.08V51.1818H261.898V56.1818Z" fill="#455A64"/>
<path d="M364.176 38V84.5455H347.903C344.661 84.5455 341.987 83.9848 339.881 82.8636C337.775 81.7576 336.206 80.2651 335.176 78.3864C334.146 76.5227 333.631 74.4545 333.631 72.1818C333.631 70.1818 333.987 68.5303 334.699 67.2273C335.396 65.9242 336.32 64.8939 337.472 64.1364C338.608 63.3788 339.843 62.8182 341.176 62.4545V62C339.752 61.9091 338.32 61.4091 336.881 60.5C335.441 59.5909 334.237 58.2879 333.267 56.5909C332.297 54.8939 331.812 52.8182 331.812 50.3636C331.812 48.0303 332.343 45.9318 333.403 44.0682C334.464 42.2045 336.138 40.7273 338.426 39.6364C340.714 38.5455 343.691 38 347.358 38H364.176ZM358.54 43H347.358C343.676 43 341.062 43.7121 339.517 45.1364C337.956 46.5758 337.176 48.3182 337.176 50.3636C337.176 51.9394 337.578 53.3939 338.381 54.7273C339.184 56.0758 340.328 57.1515 341.812 57.9545C343.297 58.7727 345.055 59.1818 347.085 59.1818H358.54V43ZM358.54 64.0909H348.085C346.388 64.0909 344.858 64.4242 343.494 65.0909C342.116 65.7576 341.025 66.697 340.222 67.9091C339.403 69.1212 338.994 70.5455 338.994 72.1818C338.994 74.2273 339.706 75.9621 341.131 77.3864C342.555 78.8258 344.812 79.5455 347.903 79.5455H358.54V64.0909Z" fill="#455A64"/>
<path d="M429.69 70H435.327C435.66 71.6212 436.243 73.0455 437.077 74.2727C437.895 75.5 438.895 76.5303 440.077 77.3636C441.243 78.2121 442.539 78.8485 443.963 79.2727C445.387 79.697 446.872 79.9091 448.418 79.9091C451.236 79.9091 453.789 79.197 456.077 77.7727C458.349 76.3485 460.16 74.25 461.509 71.4773C462.842 68.7045 463.509 65.303 463.509 61.2727C463.509 57.2424 462.842 53.8409 461.509 51.0682C460.16 48.2955 458.349 46.197 456.077 44.7727C453.789 43.3485 451.236 42.6364 448.418 42.6364C446.872 42.6364 445.387 42.8485 443.963 43.2727C442.539 43.697 441.243 44.3258 440.077 45.1591C438.895 46.0076 437.895 47.0455 437.077 48.2727C436.243 49.5151 435.66 50.9394 435.327 52.5455H429.69C430.115 50.1667 430.887 48.0379 432.009 46.1591C433.13 44.2803 434.524 42.6818 436.19 41.3636C437.857 40.0606 439.728 39.0682 441.804 38.3864C443.865 37.7045 446.069 37.3636 448.418 37.3636C452.387 37.3636 455.918 38.3333 459.009 40.2727C462.099 42.2121 464.531 44.9697 466.304 48.5455C468.077 52.1212 468.963 56.3636 468.963 61.2727C468.963 66.1818 468.077 70.4242 466.304 74C464.531 77.5758 462.099 80.3333 459.009 82.2727C455.918 84.2121 452.387 85.1818 448.418 85.1818C446.069 85.1818 443.865 84.8409 441.804 84.1591C439.728 83.4773 437.857 82.4773 436.19 81.1591C434.524 79.8561 433.13 78.2651 432.009 76.3864C430.887 74.5227 430.115 72.3939 429.69 70Z" fill="#455A64"/>
<path d="M555 38H569.364V84.5455H554.364C549.848 84.5455 545.985 83.6136 542.773 81.75C539.561 79.9015 537.098 77.2424 535.386 73.7727C533.674 70.3182 532.818 66.1818 532.818 61.3636C532.818 56.5151 533.682 52.3409 535.409 48.8409C537.136 45.3561 539.652 42.6742 542.955 40.7955C546.258 38.9318 550.273 38 555 38ZM563.727 43H555.364C551.515 43 548.326 43.7424 545.795 45.2273C543.265 46.7121 541.379 48.8258 540.136 51.5682C538.894 54.3106 538.273 57.5758 538.273 61.3636C538.273 65.1212 538.886 68.3561 540.114 71.0682C541.341 73.7955 543.174 75.8864 545.614 77.3409C548.053 78.8106 551.091 79.5455 554.727 79.5455H563.727V43Z" fill="#455A64"/>
<path d="M663.989 38V84.5455H635.898V79.5455H658.352V63.8182H637.352V58.8182H658.352V43H635.534V38H663.989Z" fill="#455A64"/>
<path d="M758.145 38V84.5455H730.236V79.5455H752.509V63.8182H732.327V58.8182H752.509V38H758.145Z" fill="#455A64"/>
<path d="M830.327 70C830.827 71.5303 831.486 72.9015 832.304 74.1136C833.107 75.3409 834.069 76.3864 835.19 77.25C836.296 78.1136 837.554 78.7727 838.963 79.2273C840.372 79.6818 841.918 79.9091 843.599 79.9091C846.357 79.9091 848.865 79.197 851.122 77.7727C853.38 76.3485 855.175 74.25 856.509 71.4773C857.842 68.7045 858.509 65.303 858.509 61.2727C858.509 57.2424 857.834 53.8409 856.486 51.0682C855.137 48.2955 853.312 46.197 851.009 44.7727C848.705 43.3485 846.115 42.6364 843.236 42.6364C840.569 42.6364 838.221 43.2045 836.19 44.3409C834.145 45.4924 832.554 47.1136 831.418 49.2045C830.266 51.3106 829.69 53.7879 829.69 56.6364L827.963 56.2727H841.963V61.2727H824.236V56.2727C824.236 52.4394 825.054 49.1061 826.69 46.2727C828.312 43.4394 830.554 41.2424 833.418 39.6818C836.266 38.1364 839.539 37.3636 843.236 37.3636C847.357 37.3636 850.978 38.3333 854.099 40.2727C857.205 42.2121 859.63 44.9697 861.372 48.5455C863.099 52.1212 863.963 56.3636 863.963 61.2727C863.963 64.9545 863.471 68.2651 862.486 71.2045C861.486 74.1591 860.077 76.6742 858.259 78.75C856.44 80.8258 854.289 82.4167 851.804 83.5227C849.319 84.6288 846.584 85.1818 843.599 85.1818C841.145 85.1818 838.857 84.8106 836.736 84.0682C834.599 83.3409 832.698 82.303 831.031 80.9545C829.349 79.6212 827.948 78.0227 826.827 76.1591C825.705 74.3106 824.933 72.2576 824.509 70H830.327Z" fill="#455A64"/>
<path d="M966.051 38V84.5455H960.415V63.8182H935.597V84.5455H929.96V38H935.597V58.8182H960.415V38H966.051Z" fill="#455A64"/>
<path d="M1034.99 125.364C1038.11 125.364 1040.87 125.917 1043.26 127.023C1045.64 128.144 1047.5 129.682 1048.83 131.636C1050.17 133.606 1050.82 135.848 1050.81 138.364C1050.82 140.333 1050.44 142.152 1049.65 143.818C1048.86 145.5 1047.79 146.902 1046.42 148.023C1045.04 149.159 1043.51 149.879 1041.81 150.182V150.455C1044.04 151.03 1045.81 152.28 1047.13 154.205C1048.45 156.144 1049.1 158.348 1049.08 160.818C1049.1 163.182 1048.5 165.295 1047.29 167.159C1046.07 169.023 1044.41 170.492 1042.29 171.568C1040.15 172.644 1037.72 173.182 1034.99 173.182C1032.29 173.182 1029.89 172.644 1027.76 171.568C1025.64 170.492 1023.98 169.023 1022.76 167.159C1021.54 165.295 1020.92 163.182 1020.9 160.818C1020.92 158.348 1021.59 156.144 1022.92 154.205C1024.24 152.28 1025.99 151.03 1028.17 150.455V150.182C1026.49 149.879 1024.98 149.159 1023.63 148.023C1022.28 146.902 1021.2 145.5 1020.4 143.818C1019.6 142.152 1019.19 140.333 1019.17 138.364C1019.19 135.848 1019.87 133.606 1021.22 131.636C1022.55 129.682 1024.41 128.144 1026.79 127.023C1029.15 125.917 1031.89 125.364 1034.99 125.364ZM1034.99 130.364C1032.89 130.364 1031.07 130.705 1029.54 131.386C1028.01 132.068 1026.82 133.03 1025.99 134.273C1025.16 135.515 1024.73 136.97 1024.72 138.636C1024.73 140.394 1025.19 141.947 1026.08 143.295C1026.98 144.644 1028.2 145.705 1029.74 146.477C1031.27 147.25 1033.02 147.636 1034.99 147.636C1036.98 147.636 1038.75 147.25 1040.31 146.477C1041.86 145.705 1043.07 144.644 1043.97 143.295C1044.85 141.947 1045.28 140.394 1045.26 138.636C1045.28 136.97 1044.88 135.515 1044.06 134.273C1043.23 133.03 1042.04 132.068 1040.49 131.386C1038.95 130.705 1037.11 130.364 1034.99 130.364ZM1034.99 152.455C1033.32 152.455 1031.85 152.788 1030.56 153.455C1029.26 154.121 1028.23 155.053 1027.49 156.25C1026.75 157.447 1026.37 158.848 1026.36 160.455C1026.37 162.03 1026.74 163.402 1027.47 164.568C1028.2 165.75 1029.2 166.659 1030.49 167.295C1031.78 167.947 1033.28 168.273 1034.99 168.273C1036.73 168.273 1038.26 167.947 1039.56 167.295C1040.86 166.659 1041.87 165.75 1042.58 164.568C1043.29 163.402 1043.64 162.03 1043.63 160.455C1043.64 158.848 1043.29 157.447 1042.56 156.25C1041.82 155.053 1040.79 154.121 1039.49 153.455C1038.19 152.788 1036.69 152.455 1034.99 152.455Z" fill="#455A64"/>
<path d="M1047.01 226L1026.19 267.182V267.545H1050.19V272.545H1020.37V267.273L1041.1 226H1047.01Z" fill="#455A64"/>
<path d="M1034.7 325.364C1036.61 325.394 1038.51 325.758 1040.42 326.455C1042.33 327.152 1044.07 328.326 1045.65 329.977C1047.23 331.644 1048.49 333.894 1049.45 336.727C1050.4 339.576 1050.88 343.152 1050.88 347.455C1050.88 351.576 1050.49 355.227 1049.72 358.409C1048.95 361.606 1047.82 364.295 1046.36 366.477C1044.89 368.674 1043.11 370.341 1041.04 371.477C1038.95 372.614 1036.59 373.182 1033.97 373.182C1031.36 373.182 1029.04 372.659 1027.01 371.614C1024.97 370.583 1023.3 369.144 1022.01 367.295C1020.73 365.447 1019.89 363.318 1019.51 360.909H1025.06C1025.57 363 1026.57 364.735 1028.06 366.114C1029.54 367.492 1031.51 368.182 1033.97 368.182C1037.57 368.182 1040.42 366.614 1042.49 363.477C1044.55 360.341 1045.59 355.939 1045.61 350.273H1045.24C1044.39 351.561 1043.39 352.659 1042.22 353.568C1041.04 354.492 1039.73 355.205 1038.31 355.705C1036.89 356.205 1035.38 356.455 1033.79 356.455C1031.12 356.455 1028.68 355.788 1026.47 354.455C1024.26 353.136 1022.48 351.311 1021.15 348.977C1019.82 346.659 1019.15 344 1019.15 341C1019.15 338.121 1019.79 335.485 1021.08 333.091C1022.37 330.712 1024.18 328.818 1026.51 327.409C1028.83 326.015 1031.56 325.333 1034.7 325.364ZM1034.7 330.364C1032.79 330.364 1031.07 330.841 1029.56 331.795C1028.03 332.75 1026.82 334.03 1025.95 335.636C1025.05 337.242 1024.61 339.03 1024.61 341C1024.61 342.924 1025.04 344.674 1025.9 346.25C1026.75 347.841 1027.92 349.106 1029.42 350.045C1030.91 350.985 1032.61 351.455 1034.51 351.455C1035.95 351.455 1037.29 351.167 1038.54 350.591C1039.78 350.03 1040.87 349.258 1041.81 348.273C1042.73 347.288 1043.46 346.159 1043.99 344.886C1044.52 343.629 1044.79 342.303 1044.79 340.909C1044.79 339.061 1044.36 337.333 1043.49 335.727C1042.61 334.121 1041.42 332.826 1039.9 331.841C1038.37 330.856 1036.64 330.364 1034.7 330.364Z" fill="#455A64"/>
<path d="M1035.11 425.364C1037.77 425.364 1040.17 425.894 1042.31 426.955C1044.45 428.015 1046.16 429.47 1047.45 431.318C1048.73 433.167 1049.44 435.273 1049.56 437.636H1044.11C1043.89 435.53 1042.94 433.788 1041.24 432.409C1039.53 431.045 1037.48 430.364 1035.11 430.364C1033.2 430.364 1031.5 430.811 1030.01 431.705C1028.51 432.598 1027.34 433.826 1026.49 435.386C1025.63 436.962 1025.2 438.742 1025.2 440.727C1025.2 442.758 1025.64 444.568 1026.54 446.159C1027.42 447.765 1028.63 449.03 1030.17 449.955C1031.72 450.879 1033.48 451.348 1035.47 451.364C1036.89 451.379 1038.36 451.159 1039.86 450.705C1041.36 450.265 1042.59 449.697 1043.56 449L1048.83 449.636L1046.01 472.545H1021.83V467.545H1041.29L1042.92 453.818H1042.65C1041.7 454.576 1040.5 455.205 1039.06 455.705C1037.62 456.205 1036.12 456.455 1034.56 456.455C1031.71 456.455 1029.17 455.773 1026.95 454.409C1024.7 453.061 1022.95 451.212 1021.67 448.864C1020.39 446.515 1019.74 443.833 1019.74 440.818C1019.74 437.849 1020.41 435.197 1021.74 432.864C1023.06 430.545 1024.88 428.712 1027.2 427.364C1029.51 426.03 1032.15 425.364 1035.11 425.364Z" fill="#455A64"/>
<path d="M1051.8 535.545V540.182L1031.35 572.545H1027.99V565.364H1030.26L1045.71 540.909V540.545H1018.17V535.545H1051.8ZM1029.89 526V572.545H1024.53V526H1029.89Z" fill="#455A64"/>
<path d="M1034.83 625.364C1037.83 625.364 1040.5 625.879 1042.85 626.909C1045.19 627.939 1047.04 629.371 1048.42 631.205C1049.78 633.053 1050.53 635.197 1050.65 637.636H1044.92C1044.8 636.136 1044.28 634.841 1043.37 633.75C1042.47 632.674 1041.28 631.841 1039.81 631.25C1038.34 630.659 1036.71 630.364 1034.92 630.364C1032.92 630.364 1031.15 630.712 1029.6 631.409C1028.06 632.106 1026.84 633.076 1025.97 634.318C1025.09 635.561 1024.65 637 1024.65 638.636C1024.65 640.348 1025.07 641.856 1025.92 643.159C1026.77 644.477 1028.01 645.508 1029.65 646.25C1031.28 646.992 1033.28 647.364 1035.65 647.364H1039.37V652.364H1035.65C1033.8 652.364 1032.18 652.697 1030.78 653.364C1029.37 654.03 1028.28 654.97 1027.49 656.182C1026.69 657.394 1026.28 658.818 1026.28 660.455C1026.28 662.03 1026.63 663.402 1027.33 664.568C1028.03 665.735 1029.01 666.644 1030.28 667.295C1031.54 667.947 1033.03 668.273 1034.74 668.273C1036.34 668.273 1037.86 667.977 1039.28 667.386C1040.69 666.811 1041.84 665.97 1042.74 664.864C1043.63 663.773 1044.12 662.455 1044.19 660.909H1049.65C1049.56 663.349 1048.82 665.485 1047.44 667.318C1046.06 669.167 1044.26 670.606 1042.03 671.636C1039.79 672.667 1037.33 673.182 1034.65 673.182C1031.77 673.182 1029.3 672.598 1027.24 671.432C1025.18 670.28 1023.59 668.758 1022.49 666.864C1021.38 664.97 1020.83 662.924 1020.83 660.727C1020.83 658.106 1021.52 655.871 1022.9 654.023C1024.26 652.174 1026.12 650.894 1028.47 650.182V649.818C1025.53 649.333 1023.23 648.083 1021.58 646.068C1019.93 644.068 1019.1 641.591 1019.1 638.636C1019.1 636.106 1019.79 633.833 1021.17 631.818C1022.53 629.818 1024.4 628.242 1026.76 627.091C1029.12 625.939 1031.81 625.364 1034.83 625.364Z" fill="#455A64"/>
<path d="M1049.56 726V730.091L1034.19 746.909C1032.39 748.879 1030.91 750.591 1029.74 752.045C1028.57 753.515 1027.71 754.894 1027.15 756.182C1026.57 757.485 1026.28 758.849 1026.28 760.273C1026.28 761.909 1026.68 763.326 1027.47 764.523C1028.24 765.72 1029.3 766.644 1030.65 767.295C1032 767.947 1033.51 768.273 1035.19 768.273C1036.98 768.273 1038.54 767.902 1039.87 767.159C1041.19 766.432 1042.22 765.409 1042.94 764.091C1043.66 762.773 1044.01 761.227 1044.01 759.455H1049.37C1049.37 762.182 1048.75 764.576 1047.49 766.636C1046.23 768.697 1044.52 770.303 1042.35 771.455C1040.17 772.606 1037.72 773.182 1035.01 773.182C1032.28 773.182 1029.87 772.606 1027.76 771.455C1025.66 770.303 1024 768.75 1022.81 766.795C1021.61 764.841 1021.01 762.667 1021.01 760.273C1021.01 758.561 1021.32 756.886 1021.94 755.25C1022.55 753.629 1023.61 751.818 1025.12 749.818C1026.62 747.833 1028.71 745.409 1031.37 742.545L1041.83 731.364V731H1020.19V726H1049.56Z" fill="#455A64"/>
<path d="M1028.69 872.545V826H1034.33V866.636H1034.6L1045.97 859.091V864.818L1034.33 872.545H1028.69Z" fill="#455A64"/>
<path d="M165.747 174.642C162.625 174.661 159.865 174.124 157.464 173.033C155.078 171.926 153.213 170.399 151.868 168.453C150.523 166.492 149.85 164.253 149.85 161.738C149.823 159.768 150.198 157.948 150.976 156.276C151.753 154.59 152.82 153.182 154.177 152.052C155.549 150.908 157.083 150.179 158.778 149.865L158.776 149.593C156.545 149.03 154.765 147.791 153.435 145.875C152.105 143.944 151.44 141.743 151.44 139.273C151.411 136.91 151.996 134.793 153.197 132.922C154.398 131.051 156.056 129.571 158.17 128.482C160.3 127.393 162.729 126.841 165.456 126.824C168.153 126.808 170.565 127.331 172.693 128.394C174.821 129.457 176.496 130.916 177.72 132.773C178.958 134.629 179.592 136.738 179.622 139.102C179.622 141.572 178.961 143.78 177.639 145.728C176.333 147.66 174.59 148.921 172.412 149.51L172.414 149.782C174.097 150.075 175.617 150.786 176.972 151.914C178.328 153.027 179.412 154.422 180.225 156.099C181.038 157.76 181.458 159.576 181.485 161.546C181.486 164.061 180.817 166.307 179.481 168.285C178.159 170.248 176.313 171.797 173.941 172.933C171.584 174.053 168.853 174.623 165.747 174.642ZM165.716 169.642C167.822 169.629 169.638 169.277 171.164 168.586C172.691 167.895 173.866 166.925 174.692 165.678C175.518 164.43 175.933 162.973 175.938 161.307C175.913 159.549 175.449 157.999 174.546 156.656C173.644 155.313 172.418 154.26 170.868 153.496C169.333 152.733 167.581 152.357 165.611 152.369C163.626 152.381 161.856 152.778 160.3 153.561C158.759 154.343 157.546 155.411 156.66 156.765C155.79 158.118 155.368 159.674 155.393 161.432C155.388 163.098 155.799 164.55 156.624 165.788C157.465 167.025 158.66 167.98 160.21 168.652C161.76 169.325 163.595 169.655 165.716 169.642ZM165.582 147.551C167.249 147.541 168.724 147.199 170.008 146.524C171.306 145.85 172.324 144.912 173.059 143.71C173.794 142.509 174.164 141.105 174.169 139.499C174.145 137.923 173.765 136.554 173.031 135.392C172.296 134.215 171.283 133.312 169.992 132.683C168.7 132.039 167.198 131.723 165.486 131.733C163.743 131.744 162.223 132.079 160.924 132.738C159.624 133.383 158.622 134.298 157.917 135.484C157.212 136.655 156.872 138.028 156.897 139.604C156.892 141.21 157.256 142.609 157.991 143.802C158.74 144.994 159.769 145.92 161.076 146.579C162.383 147.237 163.885 147.561 165.582 147.551Z" fill="#455A64"/>
<path d="M152.896 274.085L173.464 232.778L173.462 232.414L149.462 232.56L149.432 227.56L179.249 227.379L179.281 232.651L158.805 274.049L152.896 274.085Z" fill="#455A64"/>
<path d="M167.508 374.635C165.599 374.616 163.687 374.264 161.774 373.578C159.861 372.893 158.111 371.729 156.526 370.088C154.94 368.431 153.661 366.188 152.689 363.361C151.717 360.518 151.218 356.945 151.192 352.642C151.167 348.521 151.531 344.867 152.285 341.681C153.038 338.479 154.143 335.783 155.599 333.593C157.055 331.387 158.818 329.709 160.887 328.56C162.971 327.411 165.323 326.829 167.945 326.813C170.551 326.797 172.872 327.306 174.908 328.339C176.96 329.357 178.636 330.786 179.935 332.626C181.234 334.467 182.08 336.591 182.473 338.997L176.928 339.031C176.4 336.943 175.39 335.215 173.896 333.845C172.403 332.475 170.429 331.798 167.975 331.813C164.369 331.835 161.538 333.42 159.481 336.569C157.439 339.718 156.428 344.126 156.448 349.792L156.811 349.79C157.652 348.497 158.653 347.392 159.814 346.476C160.99 345.545 162.289 344.825 163.71 344.316C165.131 343.808 166.637 343.548 168.228 343.539C170.895 343.522 173.338 344.174 175.558 345.494C177.778 346.799 179.562 348.614 180.91 350.939C182.257 353.249 182.94 355.904 182.958 358.904C182.976 361.783 182.348 364.423 181.074 366.825C179.801 369.211 178.002 371.116 175.677 372.539C173.368 373.947 170.644 374.646 167.508 374.635ZM167.478 369.635C169.387 369.623 171.096 369.135 172.605 368.172C174.13 367.208 175.326 365.92 176.195 364.309C177.08 362.697 177.516 360.907 177.504 358.937C177.492 357.013 177.049 355.266 176.176 353.695C175.318 352.109 174.136 350.851 172.631 349.921C171.14 348.991 169.44 348.531 167.531 348.543C166.092 348.552 164.753 348.848 163.514 349.431C162.275 349.999 161.189 350.779 160.255 351.769C159.337 352.76 158.617 353.893 158.094 355.169C157.571 356.429 157.314 357.757 157.323 359.151C157.334 360.999 157.776 362.724 158.65 364.325C159.538 365.925 160.743 367.213 162.264 368.189C163.8 369.165 165.538 369.646 167.478 369.635Z" fill="#455A64"/>
<path d="M167.207 474.638C164.54 474.654 162.136 474.139 159.993 473.091C157.85 472.044 156.129 470.599 154.83 468.759C153.531 466.918 152.814 464.816 152.678 462.454L158.132 462.42C158.357 464.525 159.322 466.262 161.028 467.63C162.748 468.983 164.798 469.653 167.176 469.638C169.086 469.627 170.78 469.169 172.259 468.266C173.754 467.363 174.92 466.129 175.759 464.563C176.613 462.982 177.034 461.199 177.022 459.215C177.01 457.184 176.552 455.376 175.648 453.791C174.76 452.19 173.54 450.933 171.989 450.018C170.438 449.103 168.67 448.644 166.685 448.641C165.261 448.634 163.8 448.863 162.303 449.327C160.806 449.775 159.574 450.351 158.609 451.054L153.332 450.449L156.011 427.524L180.193 427.377L180.223 432.376L160.769 432.495L159.216 446.232L159.489 446.23C160.438 445.467 161.632 444.831 163.068 444.322C164.504 443.813 166.003 443.554 167.563 443.545C170.412 443.527 172.954 444.194 175.189 445.544C177.44 446.879 179.209 448.716 180.496 451.057C181.798 453.398 182.458 456.075 182.476 459.091C182.494 462.06 181.844 464.716 180.525 467.057C179.221 469.383 177.414 471.228 175.104 472.59C172.794 473.938 170.161 474.62 167.207 474.638Z" fill="#455A64"/>
<path d="M152.117 564.55L152.089 559.914L172.346 527.426L175.71 527.406L175.753 534.587L173.481 534.601L158.175 559.149L158.177 559.513L185.722 559.345L185.753 564.345L152.117 564.55ZM174.084 573.962L173.801 527.417L179.164 527.385L179.447 573.929L174.084 573.962Z" fill="#455A64"/>
<path d="M169.605 674.627C166.605 674.646 163.927 674.147 161.573 673.131C159.233 672.115 157.368 670.694 155.978 668.869C154.604 667.029 153.848 664.89 153.712 662.451L159.439 662.416C159.57 663.915 160.093 665.208 161.008 666.293C161.924 667.363 163.118 668.189 164.592 668.771C166.065 669.353 167.695 669.639 169.483 669.628C171.483 669.616 173.254 669.257 174.795 668.55C176.336 667.844 177.542 666.867 178.414 665.619C179.285 664.371 179.716 662.929 179.706 661.293C179.695 659.581 179.262 658.076 178.405 656.778C177.549 655.465 176.3 654.442 174.659 653.71C173.019 652.977 171.016 652.618 168.653 652.633L164.926 652.655L164.895 647.655L168.622 647.633C170.471 647.622 172.09 647.278 173.48 646.603C174.885 645.928 175.978 644.982 176.758 643.765C177.554 642.548 177.947 641.121 177.937 639.485C177.927 637.909 177.57 636.54 176.866 635.378C176.162 634.216 175.172 633.312 173.895 632.669C172.634 632.025 171.147 631.708 169.435 631.718C167.829 631.728 166.315 632.033 164.895 632.632C163.489 633.217 162.343 634.065 161.456 635.176C160.568 636.272 160.091 637.594 160.025 639.139L154.571 639.173C154.647 636.733 155.369 634.592 156.736 632.75C158.104 630.893 159.898 629.443 162.119 628.399C164.355 627.355 166.814 626.825 169.496 626.809C172.374 626.791 174.848 627.36 176.915 628.514C178.983 629.653 180.575 631.166 181.693 633.053C182.811 634.94 183.376 636.982 183.389 639.179C183.405 641.8 182.73 644.039 181.362 645.896C180.01 647.753 178.161 649.045 175.817 649.771L175.819 650.135C178.762 650.602 181.065 651.838 182.729 653.843C184.392 655.833 185.233 658.305 185.251 661.259C185.266 663.789 184.591 666.066 183.224 668.09C181.873 670.098 180.019 671.685 177.662 672.851C175.306 674.017 172.62 674.609 169.605 674.627Z" fill="#455A64"/>
<path d="M154.482 774.085L154.457 769.994L169.718 753.083C171.509 751.102 172.983 749.381 174.141 747.919C175.299 746.443 176.154 745.058 176.707 743.767C177.275 742.461 177.554 741.095 177.546 739.671C177.536 738.035 177.133 736.621 176.338 735.428C175.558 734.236 174.492 733.318 173.139 732.675C171.787 732.032 170.27 731.715 168.588 731.725C166.8 731.736 165.242 732.117 163.913 732.868C162.599 733.603 161.583 734.632 160.864 735.954C160.16 737.277 159.813 738.824 159.824 740.597L154.46 740.63C154.444 737.903 155.058 735.505 156.303 733.437C157.548 731.368 159.25 729.752 161.41 728.587C163.585 727.422 166.028 726.832 168.74 726.815C171.467 726.799 173.887 727.36 176 728.499C178.113 729.637 179.774 731.18 180.983 733.127C182.192 735.075 182.804 737.245 182.818 739.639C182.829 741.351 182.528 743.027 181.917 744.667C181.321 746.292 180.271 748.109 178.768 750.118C177.28 752.112 175.212 754.549 172.563 757.429L162.176 768.674L162.178 769.038L183.814 768.906L183.845 773.906L154.482 774.085Z" fill="#455A64"/>
<path d="M171.17 827.439L171.453 873.983L165.817 874.018L165.57 833.382L165.297 833.384L153.979 840.998L153.945 835.271L165.534 827.473L171.17 827.439Z" fill="#455A64"/>
<rect x="105" y="5" width="990" height="990" stroke="#455A64" stroke-width="10"/>
</g>
<defs>
<clipPath id="clip0_1_4">
<rect width="1200" height="1000" fill="white"/>
</clipPath>
<clipPath id="clip1_1_4">
<rect width="1200" height="200" fill="white" transform="translate(0 400)"/>
</clipPath>
<clipPath id="clip2_1_4">
<rect x="200" y="100" width="800" height="800" fill="white"/>
</clipPath>
</defs>
</svg>
