<svg xmlns="http://www.w3.org/2000/svg" viewBox="0 0 212.91 290.85"><defs><style>.cls-1{fill:#fff;}.cls-1,.cls-2{stroke:#231f20;stroke-miterlimit:10;stroke-width:5px;}.cls-2{fill:#231f20;}</style></defs><g id="Layer_2" data-name="Layer 2"><g id="Layer_1-2" data-name="Layer 1"><g id="White_Rook" data-name="White Rook"><path class="cls-1" d="M148.84,119.35l4.85,148.41,21.82,20.59H38.94L57.53,263.5,76.11,119.35"/><path class="cls-1" d="M63.94,113.35c26.49,27.75,72.72,26.83,98,0,20.53-21.79,23-56.2,8-80-22.16-35.11-79.37-42.26-108-11C40,46.33,39.52,87.78,63.94,113.35Z"/><path class="cls-1" d="M93.94,95.35a160.9,160.9,0,0,0,13.5,80,215.08,215.08,0,0,1,29.5-80"/><line class="cls-1" x1="155.94" y1="271.94" x2="57.22" y2="262.88"/><path class="cls-1" d="M81.83,126.55c-3.19,16-4.91,28.88-5.89,37.8-1.68,15.2-2,25.43-9.76,32a23.57,23.57,0,0,1-11.24,5l-32,16,14-27-27,14,31-37-26,8,49-62Z"/><path class="cls-1" d="M127.94,134.9c2.47,11.51,4.22,19.79,5,23.45,4.66,22,6.33,30.33,13.64,36.7a28.94,28.94,0,0,0,9,5.3l32.94,14-14.41-23.62L201.94,203,170,170.6l26.76,7-50.43-54.25Z"/><circle class="cls-2" cx="81.94" cy="55.35" r="12"/><circle class="cls-2" cx="144.44" cy="55.35" r="12"/></g></g></g></svg>