<svg xmlns="http://www.w3.org/2000/svg" viewBox="0 0 227.13 282.53"><defs><style>.cls-1{fill:#fff;}.cls-1,.cls-2,.cls-3{stroke:#231f20;stroke-miterlimit:10;stroke-width:5px;}.cls-2{fill:#231f20;}.cls-3{fill:#fdef44;}</style></defs><g id="Layer_2" data-name="Layer 2"><g id="Layer_1-2" data-name="Layer 1"><g id="White_Banana_King" data-name="White Banana King"><path class="cls-1" d="M6.28,270a436.61,436.61,0,0,0,91,10,436.67,436.67,0,0,0,95-10,446.38,446.38,0,0,0,9-133,441.16,441.16,0,0,0-9-59,180,180,0,0,0-136,0l-9,30,114,7a584.66,584.66,0,0,0,7,131c-21.46-1.14-43.81-1.85-67-2-29.7-.18-58.08.57-85,2Z"/><path class="cls-1" d="M47.28,108a216,216,0,0,1,114,7c-.52,20.78-.31,43.19,1,67,1.25,22.79,3.37,44.18,6,64-21.86-3.47-130.61-3.39-152,0a252.39,252.39,0,0,0,24-61A252.71,252.71,0,0,0,47.28,108Z"/><path class="cls-1" d="M60.85,76.24,41.28,29l51,18,39-24,37,26.61,45-26.61L183.67,74.8A179.88,179.88,0,0,0,60.85,76.24Z"/><polyline class="cls-1" points="47.06 142.86 16.28 188.03 47.06 196.03"/><line class="cls-1" x1="28.49" y1="220.7" x2="65.28" y2="220.7"/><circle class="cls-2" cx="98.28" cy="141.02" r="11"/><g id="Banana"><path class="cls-3" d="M11.71,14C9.1,20.55,40.27,42.45,73.63,53c40.7,12.91,74.75,5.82,92,2,20.13-4.45,59.44-16.52,59-30-.11-3.44-2.8-6.22-5.27-8.14A369.41,369.41,0,0,1,120.6,27.15C57,25.06,14.63,6.75,11.71,14Z"/><path class="cls-3" d="M2,1.54,11.71,14"/></g></g></g></g></svg>