<svg xmlns="http://www.w3.org/2000/svg" viewBox="0 0 188.13 148.47"><defs><style>.cls-1{fill:#fff;}.cls-1,.cls-2{stroke:#231f20;stroke-miterlimit:10;stroke-width:5px;}.cls-2{fill:#231f20;}</style></defs><g id="Layer_2" data-name="Layer 2"><g id="Layer_1-2" data-name="Layer 1"><g id="White_Elephant" data-name="White Elephant"><polyline class="cls-1" points="53.52 96.01 39.82 136.83 147.21 136.83 135.16 96.01"/><path class="cls-1" d="M185.56,68.8c1.11,18.9-11,43.18-23.83,43.18-7.58,0-14.33-6.4-18.7-16.39C132.28,105.62,116.3,112,98.44,112c-20.49,0-38.53-8.39-49-21.09C45,103.52,37,112,27.77,112,14.18,112,1.51,87.8,2.56,68.8c1.89-34,48.71-67.09,93.55-66.29C139.13,3.28,183.6,35.28,185.56,68.8Z"/><path class="cls-1" d="M82,83c-3.73,19.26-.6,33.5,1.64,40.81,2.49,8.12,5.29,17.25,13.15,20.71,7.43,3.27,17.74.75,19.73-4.73s-5.48-10.15-9.32-21.3-1.92-22.64.82-31.35"/><ellipse class="cls-2" cx="72.1" cy="57.51" rx="8.18" ry="8.83"/><ellipse class="cls-2" cx="122.83" cy="57.51" rx="8.18" ry="8.83"/></g></g></g></svg>