<svg xmlns="http://www.w3.org/2000/svg" viewBox="0 0 179.71 266.32"><defs><style>.cls-1{fill:#fff;stroke-width:5px;}.cls-1,.cls-2{stroke:#231f20;stroke-miterlimit:10;}.cls-2{fill:#231f20;}</style></defs><g id="Layer_2" data-name="Layer 2"><g id="Layer_1-2" data-name="Layer 1"><g id="White_Piece" data-name="White Piece"><path class="cls-1" d="M35,200.6l-31,63c24,0,37.82-7,46-13.5,8.39-6.66,12.92-14.39,21-14,8.27.4,11.65,8.91,20,16,7.8,6.64,21.06,13,45,11.5q-14.51-31.5-29-63Z"/><path class="cls-1" d="M35,200.6,23,44.1c2.83-11,7.54-24.16,14.84-24.89C50,18,63.9,51.69,65,51.1S45.51,21.63,54,9.1c6.25-9.21,27.23-8,41-1,16.93,8.69,24.33,27,30.33,42.4A140.84,140.84,0,0,1,132,73.1a177.57,177.57,0,0,1,3.28,28c1.22,43.22-24.1,91.64-28.28,99.49Z"/><path class="cls-1" d="M135.3,101.11l36.72,74a167.81,167.81,0,0,1-19-19c-4.66-5.48-7.3-9.35-12-10-6-.82-11.36,4.05-14.11,7Q131.11,127.09,135.3,101.11Z"/><circle class="cls-2" cx="95.02" cy="41.1" r="11"/><path class="cls-1" d="M52,85.1a78.21,78.21,0,0,0,27.16,64L106,89.1"/></g></g></g></svg>