<svg xmlns="http://www.w3.org/2000/svg" viewBox="0 0 223.57 281.44"><defs><style>.cls-1{fill:#fff;}.cls-1,.cls-2,.cls-3{stroke:#231f20;stroke-miterlimit:10;stroke-width:5px;}.cls-2{fill:#231f20;}.cls-3{fill:none;}</style></defs><g id="Layer_2" data-name="Layer 2"><g id="Layer_1-2" data-name="Layer 1"><g id="White_Queen" data-name="White Queen"><path class="cls-1" d="M26.06,80.85c-10.23,25.92-28.57,84.12-6,145a171,171,0,0,0,14,29c4,3.57,34.17,29.66,77,23,46-7.15,66.92-46,69-50a336.67,336.67,0,0,0,6-36,342.87,342.87,0,0,0-6-111Z"/><path class="cls-1" d="M212.06,222.85c-26.88-23.85-23.95-86.68-23.95-86.68q-1.43-2.64-3.05-5.32a125.75,125.75,0,0,0-29-33,59.56,59.56,0,0,0-46-12,125.78,125.78,0,0,0-71,13c-2.62,14.57-5,29.92-7,46-2.35,18.87-4,36.91-5,54-8.9,29.58-14,35.37-17,35-9.39-1.14-7.65-63.06-7-86,.42-14.76,1.48-29.12,8-46a112.74,112.74,0,0,1,15-27,76.54,76.54,0,0,1,87-1,63.49,63.49,0,0,1,24-15c20.47-7,38.35-1.13,44,1a127.07,127.07,0,0,1,21,39,124.63,124.63,0,0,1,5.52,25.83h0C235.06,218.85,212.06,222.85,212.06,222.85Z"/><path class="cls-1" d="M47.06,72.85a318.87,318.87,0,0,0,59,4,316.33,316.33,0,0,0,43-4l35-54a99.52,99.52,0,0,1-31,26,99.33,99.33,0,0,1-32,10.66,55.94,55.94,0,0,0-5.5-43.66,45.43,45.43,0,0,0-15.5,23,43.62,43.62,0,0,0-1.36,16c-8.48-.77-20.35-3.28-29.64-12C54.49,25.19,52.23,1.89,48.85,2.51c-1.41.26-1.79,4.45-1.79,5.34Z"/><circle class="cls-2" cx="68.1" cy="160.73" r="16.04"/><circle class="cls-2" cx="143.56" cy="160.73" r="16.04"/><path class="cls-3" d="M75.06,222.85c-.09,1.58-.56,13.84,9,22a26,26,0,0,0,14.64,6,52.12,52.12,0,0,0,23.36-12,51.56,51.56,0,0,0,12-16"/></g></g></g></svg>