<svg xmlns="http://www.w3.org/2000/svg" viewBox="0 0 217.32 266.47"><defs><style>.cls-1{fill:#fff;}.cls-1,.cls-2{stroke:#231f20;stroke-miterlimit:10;stroke-width:5px;}.cls-2{fill:#231f20;}</style></defs><g id="Layer_2" data-name="Layer 2"><g id="Layer_1-2" data-name="Layer 1"><g id="White_King" data-name="White King"><path class="cls-1" d="M3.46,254a437.29,437.29,0,0,0,91,10,437.29,437.29,0,0,0,95-10,446.4,446.4,0,0,0,9-133,439.3,439.3,0,0,0-9-59,180,180,0,0,0-136,0l-9,30,114,7a584.66,584.66,0,0,0,7,131q-32.19-1.72-67-2c-29.7-.19-58.08.56-85,2Z"/><path class="cls-1" d="M44.46,92a216,216,0,0,1,114,7c-.52,20.78-.31,43.19,1,67,1.26,22.79,3.37,44.17,6,64-21.86-3.47-130.61-3.4-152,0a252.39,252.39,0,0,0,24-61A252.75,252.75,0,0,0,44.46,92Z"/><path class="cls-1" d="M58,60.17,38.46,13l51,18,39-24,37,26.61L210.46,7,180.85,58.73A179.85,179.85,0,0,0,58,60.17Z"/><polyline class="cls-1" points="44.25 126.79 13.46 171.96 44.25 179.96"/><line class="cls-1" x1="25.67" y1="204.63" x2="62.46" y2="204.63"/><circle class="cls-2" cx="95.46" cy="124.96" r="11"/></g></g></g></svg>